<svg height='100px' width='100px'  fill="#000000" xmlns="http://www.w3.org/2000/svg" xmlns:xlink="http://www.w3.org/1999/xlink" version="1.1" x="0px" y="0px" viewBox="0 0 100 100" style="enable-background:new 0 0 100 100;" xml:space="preserve"><g><ellipse transform="matrix(0.7071 -0.7071 0.7071 0.7071 -20.7162 50.0023)" cx="50" cy="50" rx="10.7" ry="10.7"></ellipse><path d="M32.1,76.7c1.4,4,3.3,7.9,5.9,11.5c1.4,1.8,3,3.6,5,5c2,1.4,4.5,2.3,7,2.2c2.5-0.1,4.9-1.2,6.6-2.7   c1.8-1.5,3.2-3.3,4.4-5.1c2.2-3.4,3.6-7.2,4.7-10.9c0.5,0,1,0.1,1.6,0.1c4.4,0.3,9,0.1,13.5-1c2.2-0.6,4.5-1.4,6.5-2.7   c2-1.3,3.8-3.3,4.7-5.6c0.9-2.4,0.7-5,0-7.2c-0.7-2.2-1.8-4.2-3.1-6c-0.7-1-1.5-2-2.4-2.9c1.2-1.5,2.3-3,3.4-4.6   c1.2-2,2.2-4.1,2.7-6.5c0.5-2.3,0.4-5-0.6-7.3c-1.1-2.3-3-4-5-5.1c-2.1-1.1-4.2-1.7-6.4-2.1c-4.4-0.7-8.7-0.5-13,0   c-0.4,0-0.8,0.1-1.2,0.2c-0.1-0.4-0.2-0.8-0.3-1.1c-1.2-4.1-2.6-8.3-5-12c-1.2-1.9-2.6-3.7-4.4-5.1c-1.8-1.5-4.1-2.6-6.7-2.7   c-2.5-0.1-5,0.8-7,2.2c-2,1.4-3.6,3.1-5,5c-2.7,3.7-4.6,7.8-6.1,12.1c-0.2,0.5-0.3,1-0.5,1.5c-3.9-0.4-7.9-0.5-11.9,0.2   c-2.2,0.4-4.4,1-6.4,2.1c-2,1.1-3.9,2.8-5,5.1C7,35,6.9,37.7,7.5,40c0.5,2.4,1.5,4.5,2.7,6.5c1,1.7,2.1,3.2,3.4,4.6   c-0.8,0.9-1.6,1.9-2.4,2.9c-1.3,1.8-2.4,3.8-3.1,6c-0.7,2.2-0.8,4.8,0,7.2c0.9,2.4,2.7,4.3,4.7,5.6c2,1.3,4.3,2.2,6.5,2.7   C23.6,76.7,27.9,76.9,32.1,76.7z M35.3,67.6c1.7,0.9,3.4,1.7,5.2,2.4c-1.5,0.4-3,0.7-4.5,0.9C35.7,69.8,35.5,68.7,35.3,67.6z    M59.5,86.5c-1.2,1.7-2.7,3.2-4.3,4.2c-1.6,1.1-3.5,1.7-5.2,1.6c-1.8-0.1-3.4-0.9-4.9-2.1c-1.4-1.2-2.6-2.8-3.7-4.4   c-1.8-2.9-3.1-6.2-4.1-9.6c4.3-0.6,8.5-1.5,12.7-2.8c4.8,1.5,9.7,2.5,14.8,3C63.4,80.1,61.7,83.5,59.5,86.5z M59.5,70   c2.8-1.2,5.5-2.5,8.2-4c-0.3,1.8-0.8,3.5-1.2,5.3C64.1,71,61.8,70.6,59.5,70z M87.3,55.1c1.1,1.8,1.9,3.7,2.3,5.6   c0.4,1.9,0.3,3.8-0.5,5.4c-0.8,1.6-2.1,2.8-3.8,3.7c-1.7,0.9-3.6,1.4-5.5,1.7c-3.9,0.7-8,0.5-12.1,0c-0.2,0-0.5-0.1-0.7-0.1   c0.4-1.8,0.8-3.7,1-5.6c4.6-2.6,9-5.6,13-9.1c1.6-1.4,3-2.8,4.4-4.4C86.2,53.3,86.8,54.2,87.3,55.1z M67.5,26.3   c4.2-0.2,8.5,0,12.6,1c2,0.5,3.9,1.3,5.6,2.4c1.6,1.1,2.9,2.5,3.5,4.2c0.6,1.7,0.5,3.5-0.1,5.3c-0.6,1.8-1.5,3.5-2.7,5.1   c-0.9,1.3-2,2.5-3.1,3.7c-1.2-1.1-2.4-2-3.6-3c-3.5-2.7-7.3-5.1-11.2-7.3c-0.4-3.8-1.1-7.5-2-11.2C66.8,26.4,67.2,26.3,67.5,26.3z    M36.9,25.4c1.1-3.9,2.5-7.8,4.6-11.2c1-1.7,2.2-3.2,3.7-4.4c1.4-1.2,3.1-2,4.8-2.1c1.8-0.1,3.6,0.5,5.2,1.6   c1.6,1.1,3.1,2.6,4.3,4.2c2.5,3.3,4.3,7.2,5.7,11.2c0.1,0.3,0.2,0.7,0.3,1c-5.3,0.8-10.5,2.1-15.5,3.8c-4.3-1.5-8.8-2.6-13.3-3.5   C36.7,25.9,36.8,25.7,36.9,25.4z M34.8,36.1c2.6-1.4,5.2-2.6,7.9-3.8c-2.7,1.1-5.3,2.3-7.9,3.6c0.4-3.1,1-6.2,1.8-9.2   c4.5,0.6,9,1.6,13.3,2.9c-2.4,0.8-4.8,1.7-7.2,2.7c2.4-1,4.8-1.8,7.3-2.6c2.5,0.8,4.9,1.6,7.3,2.6c-2.4-1-4.7-1.9-7.2-2.7   c5.1-1.6,10.3-2.7,15.6-3.2c1.1,3.6,2,7.3,2.5,11.1c-3.6-1.9-7.2-3.7-11-5.2c3.8,1.6,7.5,3.4,11,5.5c0.6,4,0.8,8.1,0.9,12.2   c0-4-0.2-8.1-0.7-12.1c3.8,2.2,7.4,4.8,10.6,7.7c1.1,1,2.3,2.1,3.3,3.2c-1.5,1.4-3.1,2.8-4.7,4c-2.8,2.2-5.8,4.1-8.9,5.9   c0.2-2.9,0.3-5.8,0.3-8.7c0,2.9-0.2,5.9-0.5,8.8c-4,2.3-8.2,4.4-12.5,6.1c-2,0.8-4.1,1.6-6.2,2.3c-2.1-0.7-4.1-1.5-6.2-2.3   c-3.2-1.3-6.4-2.8-9.5-4.5c-0.3-3.5-0.5-7-0.5-10.5C33.9,45.3,34.1,40.7,34.8,36.1z M10.9,39.2c-0.6-1.8-0.7-3.6-0.1-5.3   c0.6-1.7,1.8-3.1,3.5-4.2c1.6-1.1,3.6-1.9,5.6-2.4c3.6-0.9,7.4-1.2,11.2-1c-1.3,4.3-2.2,8.7-2.7,13.1c-2.8,1.7-5.5,3.5-8.1,5.5   c-1.2,1-2.4,2-3.6,3c-1.1-1.2-2.2-2.4-3.1-3.7C12.5,42.7,11.5,40.9,10.9,39.2z M28.1,56.9c-2-1.3-4-2.6-5.9-4.1   c-1.6-1.3-3.2-2.6-4.7-4c1.1-1.1,2.2-2.2,3.3-3.2c2.4-2.1,4.9-4,7.6-5.7c-0.4,3.4-0.6,6.8-0.6,10.2C27.9,52.3,28,54.6,28.1,56.9z    M10.9,66.1c-0.8-1.6-0.9-3.5-0.5-5.4c0.4-1.9,1.2-3.8,2.3-5.6c0.6-0.9,1.2-1.9,1.9-2.7c1.4,1.6,2.9,3,4.4,4.4   c3.1,2.7,6.5,5.2,10,7.3c0.4,2.6,1,5.1,1.6,7.6c-3.5,0.3-7,0.4-10.4-0.2c-2-0.3-3.9-0.8-5.5-1.7C13,69,11.7,67.7,10.9,66.1z"></path></g></svg>