<svg height='100px' width='100px'  fill="#1a1a1a" xmlns:x="http://ns.adobe.com/Extensibility/1.0/" xmlns:i="http://ns.adobe.com/AdobeIllustrator/10.0/" xmlns:graph="http://ns.adobe.com/Graphs/1.0/" xmlns="http://www.w3.org/2000/svg" xmlns:xlink="http://www.w3.org/1999/xlink" version="1.1" x="0px" y="0px" viewBox="-949 951 100 100" style="enable-background:new -949 951 100 100;" xml:space="preserve"><g><g i:extraneous="self"><g><path d="M-900.1,1008.4l-2.3-6.8c1.5-1.1,2.8-2.5,4-3.9l6.8,2.3c0.9,0.3,1.9-0.2,2.3-1.1l2.9-6.9c0.4-0.9,0-1.9-0.9-2.4l-6.4-3.2     c0.2-1.9,0.2-3.8,0-5.6l6.4-3.2c0.9-0.4,1.3-1.5,0.9-2.4l-2.8-6.9c-0.4-0.9-1.4-1.4-2.3-1.1l-6.8,2.3c-1.1-1.5-2.5-2.8-4-3.9     l2.3-6.8c0.3-0.9-0.2-1.9-1.1-2.3l-6.9-2.9c-0.9-0.4-1.9,0-2.4,0.9l-3.2,6.4c-1.9-0.2-3.7-0.3-5.6,0l-3.2-6.4     c-0.4-0.9-1.5-1.3-2.4-0.9l-6.9,2.9c-0.9,0.4-1.4,1.4-1,2.3l2.3,6.8c-1.5,1.1-2.8,2.4-4,3.9l-6.8-2.3c-0.9-0.3-1.9,0.2-2.3,1.1     l-2.9,6.9c-0.4,0.9,0,1.9,0.9,2.4l6.4,3.2c-0.2,1.9-0.2,3.7,0,5.6l-6.4,3.2c-0.9,0.4-1.3,1.5-0.9,2.4l2.9,6.9     c0.4,0.9,1.4,1.4,2.3,1.1l6.8-2.3c1.1,1.5,2.5,2.8,4,4l-2.3,6.8c-0.3,0.9,0.1,1.9,1.1,2.3l6.9,2.9c0.9,0.4,1.9,0,2.4-0.9l3.2-6.4     c1.9,0.2,3.8,0.2,5.6,0l3.2,6.4c0.4,0.9,1.5,1.3,2.4,0.9l6.9-2.9C-900.2,1010.3-899.8,1009.3-900.1,1008.4z M-904.2,988.7     c-2.8,6.8-10.5,10-17.3,7.2c-6.7-2.8-9.9-10.5-7.2-17.3s10.5-10,17.3-7.2C-904.6,974.2-901.4,981.9-904.2,988.7z"></path><path d="M-852.9,1019.5l-5.7-0.4c-0.4-1.5-1-2.8-1.7-4.1l3.7-4.3c0.5-0.6,0.5-1.5-0.1-2l-4.2-4.2c-0.5-0.6-1.4-0.6-2-0.1     l-4.3,3.7c-1.3-0.7-2.7-1.3-4.1-1.7l-0.4-5.7c-0.1-0.8-0.7-1.4-1.5-1.4h-5.9c-0.8,0-1.4,0.6-1.5,1.4l-0.4,5.7     c-1.5,0.4-2.8,1-4.1,1.7l-4.3-3.7c-0.6-0.5-1.5-0.5-2,0.1l-4.2,4.2c-0.5,0.5-0.6,1.4-0.1,2l3.7,4.3c-0.7,1.3-1.3,2.6-1.7,4.1     l-5.7,0.4c-0.8,0.1-1.4,0.7-1.4,1.5v5.9c0,0.8,0.6,1.4,1.4,1.5l5.7,0.4c0.4,1.4,1,2.8,1.7,4.1l-3.7,4.3c-0.5,0.6-0.5,1.5,0.1,2     l4.2,4.2c0.5,0.5,1.4,0.6,2,0.1l4.3-3.7c1.3,0.7,2.7,1.3,4.1,1.7l0.4,5.7c0.1,0.8,0.7,1.4,1.5,1.4h5.9c0.8,0,1.4-0.6,1.5-1.4     l0.4-5.7c1.5-0.4,2.8-1,4.1-1.7l4.3,3.7c0.6,0.5,1.5,0.5,2-0.1l4.2-4.2c0.5-0.5,0.6-1.4,0.1-2l-3.7-4.3c0.7-1.3,1.3-2.7,1.7-4.1     l5.7-0.4c0.8-0.1,1.4-0.7,1.4-1.5v-5.9C-851.5,1020.2-852.1,1019.5-852.9,1019.5z M-876.1,1034.5c-5.8,0-10.5-4.7-10.5-10.5     c0-5.8,4.7-10.5,10.5-10.5c5.8,0,10.6,4.7,10.6,10.5C-865.5,1029.8-870.3,1034.5-876.1,1034.5z"></path></g></g></g></svg>