<svg height='100px' width='100px'  fill="#000000" xmlns:x="http://ns.adobe.com/Extensibility/1.0/" xmlns:i="http://ns.adobe.com/AdobeIllustrator/10.0/" xmlns:graph="http://ns.adobe.com/Graphs/1.0/" xmlns="http://www.w3.org/2000/svg" xmlns:xlink="http://www.w3.org/1999/xlink" xmlns:a="http://ns.adobe.com/AdobeSVGViewerExtensions/3.0/" i:viewOrigin="0.9775 77.6094" i:rulerOrigin="0 0" i:pageBounds="0 90 90 0" viewBox="0 0 87.821 64.293" overflow="visible" enable-background="new 0 0 87.821 64.293" xml:space="preserve" x="0px" y="0px"><metadata><variableSets xmlns="http://ns.adobe.com/Variables/1.0/"><variableSet varSetName="binding1" locked="none"><variables></variables><v:sampleDataSets xmlns="http://ns.adobe.com/GenericCustomNamespace/1.0/" xmlns:v="http://ns.adobe.com/Variables/1.0/"></v:sampleDataSets></variableSet></variableSets><sfw xmlns="http://ns.adobe.com/SaveForWeb/1.0/"><slices></slices><sliceSourceBounds y="13.316" x="0.978" width="87.821" height="64.293" bottomLeftOrigin="true"></sliceSourceBounds></sfw><x:xmpmeta xmlns:x="adobe:ns:meta/" x:xmptk="XMP toolkit 3.0-29, framework 1.6"></x:xmpmeta><x:xmpmeta xmlns:x="adobe:ns:meta/" x:xmptk="XMP toolkit 3.0-29, framework 1.6"></x:xmpmeta><x:xmpmeta xmlns:x="adobe:ns:meta/" x:xmptk="XMP toolkit 3.0-29, framework 1.6"></x:xmpmeta><?xpacket begin='&#65279;' id='W5M0MpCehiHzreSzNTczkc9d'?><x:xmpmeta xmlns:x="adobe:ns:meta/" x:xmptk="XMP toolkit 3.0-29, framework 1.6"></x:xmpmeta><?xpacket end='w'?></metadata><g><g i:extraneous="self"><g i:layer="yes" i:dimmedPercent="50" i:rgbTrio="#4F008000FFFF"><g><path i:knockout="Off" fill="#000000" d="M47.438,19.083c5.269,0,9.54-4.269,9.54-9.539c0-5.273-4.271-9.544-9.54-9.544        c-5.27,0-9.542,4.271-9.542,9.544C37.896,14.814,42.168,19.083,47.438,19.083"></path><path i:knockout="Off" fill="#000000" d="M64.411,63.481c0,0.39-0.316,0.704-0.703,0.704H53.95        c-0.389,0-0.703-0.314-0.703-0.704v-9.755c0-0.388,0.314-0.704,0.703-0.704h9.758c0.387,0,0.703,0.316,0.703,0.704V63.481z"></path><path i:knockout="Off" fill="#000000" d="M76.565,63.481c0,0.39-0.314,0.704-0.702,0.704h-9.758        c-0.388,0-0.703-0.314-0.703-0.704v-9.755c0-0.388,0.315-0.704,0.703-0.704h9.758c0.388,0,0.702,0.316,0.702,0.704V63.481z"></path><path i:knockout="Off" fill="#000000" d="M87.821,63.481c0,0.39-0.315,0.704-0.703,0.704h-5.857        c-0.388,0-0.703-0.314-0.703-0.704v-5.854c0-0.39,0.315-0.704,0.703-0.704h5.857c0.388,0,0.703,0.314,0.703,0.704V63.481z"></path><path i:knockout="Off" fill="#000000" d="M72.948,40.685l-2.882-0.334c1.328-2.216,0.066-5.59-3.791-5.58l-15.908,0.018        L39.87,18.364c0,0-2.203-3.69-6.438-3.69c0,0-3.505-0.436-5.988,2.386L7.251,37.268c-1.279,1.416-2.056,3.293-2.056,5.353        c0,3.003,1.657,5.618,4.106,6.979l6.554,3.649H5.521C2.474,53.249,0,55.724,0,58.771c0,3.051,2.474,5.522,5.521,5.522h27.051        l0.131-0.003c4.503,0,8.152-3.637,8.152-8.141c0-3.152-1.789-5.889-4.408-7.243l-0.104-0.074l-11.478-6.017l12.792-12.672        l6.197,9.693c1.105,1.733,2.587,2.432,3.962,2.405l14.42-0.004l-0.884,7.633c-0.044,0.386,0.231,0.735,0.618,0.78l9.69,1.123        c0.387,0.045,0.735-0.231,0.78-0.619l1.122-9.69C73.609,41.08,73.332,40.729,72.948,40.685z"></path></g></g></g></g></svg>