<?xml version="1.0" encoding="UTF-8" standalone="no"?>
<svg
   xmlns:dc="http://purl.org/dc/elements/1.1/"
   xmlns:cc="http://creativecommons.org/ns#"
   xmlns:rdf="http://www.w3.org/1999/02/22-rdf-syntax-ns#"
   xmlns:svg="http://www.w3.org/2000/svg"
   xmlns="http://www.w3.org/2000/svg"
   xmlns:sodipodi="http://sodipodi.sourceforge.net/DTD/sodipodi-0.dtd"
   xmlns:inkscape="http://www.inkscape.org/namespaces/inkscape"
   height="100px"
   width="100px"
   fill="#000000"
   version="1.1"
   x="0px"
   y="0px"
   viewBox="0 0 512 512"
   style="enable-background:new 0 0 512 512;"
   xml:space="preserve"
   id="svg26"
   sodipodi:docname="noun_Brain_2624621 (copy).svg"
   inkscape:version="0.92.3 (2405546, 2018-03-11)"><metadata
     id="metadata32"><rdf:RDF><cc:Work
         rdf:about=""><dc:format>image/svg+xml</dc:format><dc:type
           rdf:resource="http://purl.org/dc/dcmitype/StillImage" /></cc:Work></rdf:RDF></metadata><defs
     id="defs30" /><sodipodi:namedview
     pagecolor="#ffffff"
     bordercolor="#666666"
     borderopacity="1"
     objecttolerance="10"
     gridtolerance="10"
     guidetolerance="10"
     inkscape:pageopacity="0"
     inkscape:pageshadow="2"
     inkscape:window-width="1839"
     inkscape:window-height="1025"
     id="namedview28"
     showgrid="false"
     inkscape:zoom="3.8153909"
     inkscape:cx="-12.723509"
     inkscape:cy="23.738709"
     inkscape:window-x="81"
     inkscape:window-y="27"
     inkscape:window-maximized="1"
     inkscape:current-layer="svg26" /><title
     id="title2">Brain intelligence</title><g
     id="g24"
     style="fill:#ffcc00"
     inkscape:export-xdpi="99.999298"
     inkscape:export-ydpi="99.999298"><path
       d="M229.1,114.1c-7,0-12.8,5.7-12.8,12.7c0,2,0.4,3.9,1.3,5.7c0.7,0.4,1.4,0.9,2,1.4c2.7,2,3.2,5.7,1.3,8.4   c-2,2.7-5.7,3.2-8.4,1.3c-10.7-7.9-25.7-5.6-33.6,5.1c-5.7,7.7-6.2,18-1.5,26.2c0.1,0.2,0.2,0.5,0.3,0.7c1.1-3.1,4.5-4.8,7.7-3.7   c1.9,0.7,3.3,2.2,3.8,4.2c1.1,4.1,0.5,8.5-1.5,12.3c0.3,0.7,0.7,1.3,1.2,1.8c2.4,2.3,2.4,6.1,0,8.5c-2.3,2.3-6.1,2.4-8.4,0.1   c-0.7-0.7-1.4-1.5-2-2.4c-0.4,0.1-0.7,0.1-1.1,0.1c-3.3,0-6-2.7-6-6c0-2.3,1.3-4.4,3.4-5.4c1.9-0.9,3-2.9,2.9-5   c-1.3,3.1-4.8,4.5-7.8,3.2c-0.9-0.4-1.7-0.9-2.3-1.7c-7.1,4.7-9,14.3-4.2,21.4c0.7,1,1.5,2,2.4,2.8c4.7-2.2,9.9-3.3,15.1-3.3   c3.3,0,6,2.7,6,6c0,3.3-2.7,6-6,6c-13.3,0-24,10.7-24,24c0,13.3,10.7,24,24,24c3.3,0,6,2.7,6,6c0.1,3.3-2.5,5.9-5.8,6   c0,0-0.1,0-0.1,0c-0.7,0-1.4,0-2.1-0.1v3.8c0,9.1,7.3,16.4,16.4,16.4s16.4-7.3,16.4-16.4c0,0,0,0,0,0c0-3.3,2.7-6,6-6   c3.3,0,6,2.7,6,6c0,0,0,0,0,0c0,6.4-2.2,12.6-6.1,17.6c2.4,1.2,5,1.9,7.7,1.9c9.1,0,16.5-7.4,16.6-16.5V126.9   C241.9,119.8,236.2,114.1,229.1,114.1z M202,147.4C202,147.4,202,147.4,202,147.4L202,147.4c6.9-1.8,14,0.8,18.2,6.5   c1.5,0.1,3-0.5,4.1-1.6c2.3-2.4,6.1-2.4,8.5-0.1c2.4,2.3,2.4,6.1,0.1,8.5c-1.8,1.9-4,3.3-6.5,4.2c-0.9,0.3-1.9,0.6-2.9,0.8   c-0.1,0.6-0.1,1.3-0.3,1.9c-0.3,1.7-1,3.4-1.8,4.9c-1.6,2.9-5.2,4-8.2,2.4s-4-5.2-2.4-8.2c1.4-2.6,0.5-5.8-2.1-7.2   c-0.5-0.3-1-0.4-1.5-0.6c-0.8-0.2-1.6-0.1-2.4,0.1c-3.2,0.8-6.5-1.1-7.3-4.3C196.8,151.5,198.8,148.3,202,147.4z M219.6,260   c-4,2.8-8.7,4.3-13.5,4.3c-1,0-2-0.1-2.9-0.2c-0.7,4.2-2.4,8.1-5.1,11.3c-2.1,2.6-5.9,2.9-8.4,0.8s-2.9-5.9-0.8-8.4   c2.4-2.9,3.2-6.8,2.3-10.4c0-0.1-0.1-0.2-0.1-0.3c-0.5-1.9-1.6-3.6-2.9-4.9c-2.3-2.3-2.3-6.1,0-8.5c2.3-2.3,6.1-2.3,8.5,0   c2.2,2.2,3.9,4.8,5.1,7.7c3.7,1.5,7.8,1.1,11.1-1.2c2.7-1.9,6.5-1.2,8.4,1.5C223,254.4,222.3,258.1,219.6,260z M237.5,218.2   L237.5,218.2c-1.9,2.7-5.7,3.3-8.4,1.4c0,0,0,0,0,0c-3.8-2.7-9.1-1.9-11.9,1.9c-1.3,1.8-1.8,3.9-1.5,6.1c0.4,3.3-1.9,6.3-5.2,6.7   c-3.3,0.4-6.3-1.9-6.7-5.2c-1.1-8.5,3.2-16.9,10.9-20.8c0.8-2.7,0.2-5.5-1.5-7.7c-2.1-2.6-1.7-6.4,0.9-8.4c2.6-2.1,6.4-1.7,8.4,0.9   c1.9,2.4,3.3,5.2,4,8.2c0.4,1.6,0.5,3.2,0.5,4.8c3.3,0.4,6.4,1.7,9.1,3.6C238.8,211.8,239.4,215.5,237.5,218.2z"
       id="path4"
       style="fill:#ffcc00" /><path
       d="M201,412h18c3.3,0,6,2.7,6,6s-2.7,6-6,6h-18v18h72.2c3.3,0,6,2.7,6,6s-2.7,6-6,6H201v3.1c0,8.2,6.7,14.9,14.9,14.9h80.3   c8.2,0,14.9-6.7,14.9-14.9V454h-16.2c-3.3,0-6-2.7-6-6s2.7-6,6-6H311v-18h-70.4c-3.3,0-6-2.7-6-6s2.7-6,6-6H311v-17H201V412z"
       id="path6"
       style="fill:#ffcc00" /><path
       d="M344.3,181.7c-2.1,2.5-5.9,2.9-8.4,0.7c-0.7-0.6-1.3-1.4-1.7-2.3c-0.1,2.1,1.1,4,2.9,5c3,1.5,4.2,5,2.8,8   c-1,2.1-3.1,3.4-5.4,3.4c-0.4,0-0.7,0-1.1-0.1c-0.6,0.8-1.3,1.6-2,2.4c-2.4,2.3-6.2,2.3-8.5-0.1c-2.3-2.4-2.3-6.2,0.1-8.5   c0.5-0.5,0.9-1.1,1.2-1.8c-2-3.8-2.5-8.2-1.5-12.3c0.8-3.2,4.1-5.1,7.3-4.3c1.9,0.5,3.5,1.9,4.2,3.8c0.1-0.2,0.2-0.5,0.3-0.7   c6.6-11.5,2.7-26.2-8.8-32.8c-8.3-4.8-18.6-4.2-26.3,1.5c-2.7,2-6.4,1.4-8.4-1.3s-1.4-6.4,1.3-8.4c0.7-0.5,1.3-1,2-1.4   c0.9-1.8,1.3-3.7,1.3-5.6c-0.1-7.1-5.9-12.8-13-12.7c-7,0.1-12.6,5.7-12.7,12.7v154.5c0.1,9.2,7.5,16.6,16.7,16.5   c2.6,0,5.2-0.7,7.6-1.9c-4-5-6.1-11.2-6.1-17.6c0-3.3,2.8-6,6.1-5.9c3.3,0,5.9,2.7,5.9,5.9c0,9,7.3,16.4,16.4,16.4   c9,0,16.4-7.3,16.4-16.4c0,0,0,0,0,0h0v-3.8c-0.7,0.1-1.4,0.1-2.1,0.1c-3.3,0-5.9-2.7-5.9-6c0,0,0,0,0,0c0-3.3,2.7-6,6-6   c13.3,0,24-10.7,24-24c0-13.3-10.7-24-24-24c-3.3,0-6-2.7-6-6c0-3.3,2.7-6,6-6c5.2,0,10.4,1.1,15.1,3.3c6.3-5.7,6.8-15.5,1-21.8   C346.3,183.3,345.4,182.4,344.3,181.7z M279.2,152.2C279.2,152.2,279.2,152.2,279.2,152.2c2.4-2.3,6.2-2.3,8.5,0.1c0,0,0,0,0,0   c1.1,1.1,2.6,1.7,4.1,1.6c4.2-5.7,11.4-8.2,18.2-6.5c3.2,0.8,5.2,4.1,4.3,7.3c-0.8,3.2-4.1,5.2-7.3,4.3c0,0,0,0,0,0   c-0.8-0.2-1.6-0.2-2.4-0.1c-2.9,0.6-4.7,3.4-4.1,6.3c0.1,0.5,0.3,1,0.5,1.5c1.6,2.9,0.5,6.6-2.4,8.2c-2.9,1.6-6.6,0.5-8.2-2.4   c-0.8-1.5-1.5-3.2-1.8-4.9c-0.1-0.6-0.2-1.3-0.3-1.9c-1-0.2-1.9-0.4-2.9-0.8c-2.5-0.9-4.7-2.3-6.5-4.2   C276.8,158.4,276.9,154.6,279.2,152.2z M285.2,218.4c-0.8,0.3-1.6,0.7-2.3,1.2c-2.7,2-6.4,1.4-8.4-1.3c-2-2.7-1.4-6.4,1.3-8.4   c0,0,0.1,0,0.1-0.1c2.7-1.9,5.8-3.2,9.1-3.6c-0.1-4.7,1.5-9.4,4.5-13.1c2.1-2.6,5.9-3,8.4-0.9s3,5.9,0.9,8.4   c-1.7,2.2-2.3,5-1.5,7.7c7.6,4,12,12.3,10.9,20.8c-0.4,3.3-3.4,5.6-6.7,5.2c-3.3-0.4-5.6-3.4-5.2-6.7c0.2-1.3,0-2.6-0.4-3.8   C294.5,219.3,289.7,216.9,285.2,218.4z M324,252.2c-1.4,1.4-2.4,3.1-2.9,4.9c0,0.1,0,0.2-0.1,0.3c-1,3.6-0.1,7.5,2.3,10.4   c2.1,2.6,1.7,6.3-0.8,8.4v0c-2.6,2.1-6.3,1.7-8.4-0.8c-2.7-3.2-4.4-7.2-5.1-11.3c-2.2,0.3-4.5,0.3-6.7-0.1c-3.5-0.6-6.8-1.9-9.7-4   c-2.7-1.9-3.4-5.6-1.5-8.4c1.9-2.7,5.6-3.4,8.4-1.5c3.2,2.3,7.4,2.7,11.1,1.2c1.2-2.9,2.9-5.5,5.1-7.7c2.3-2.3,6.1-2.3,8.5,0   C326.3,246,326.3,249.8,324,252.2z"
       id="path8"
       style="fill:#ffcc00" /><path
       d="M257.2,89.6c-0.4,0-0.8,0-1.2,0c-71.4-0.1-129.4,57.8-129.5,129.2c0,36.3,15.2,70.9,41.9,95.5   c19.3,17.9,30.9,42.5,32.4,68.7h110.3c1.8-26.5,13.6-51.3,33.1-69.3c52.3-48.8,55.1-130.7,6.2-183   C326.3,104.8,292.6,89.9,257.2,89.6z M254,281.4c-0.1,15.8-12.9,28.6-28.7,28.5c-6.3,0-12.4-2.1-17.3-5.9   c-3.9,1.9-8.2,2.9-12.5,2.9c-15.7,0-28.4-12.8-28.4-28.5c0,0,0,0,0,0v-6.7c-18.3-7.8-26.8-28.9-19-47.2c1.9-4.4,4.6-8.3,7.9-11.6   c-0.9-1-1.7-2-2.5-3.1c-8.4-12.6-5-29.6,7.7-38.1c0.6-0.4,1.3-0.8,2-1.2c-4.2-19.4,8.1-38.6,27.5-42.8c4.5-1,9.1-1.1,13.6-0.3   c0-0.2,0-0.3,0-0.5c0-13.7,11.1-24.9,24.9-24.9c13.7,0,24.9,11.1,24.9,24.9V281.4z M358.6,209.7c-0.7,1.1-1.6,2.2-2.5,3.2   c14.2,14,14.4,36.8,0.4,50.9c-3.3,3.3-7.2,6-11.5,7.9v6.7c0.1,15.7-12.6,28.4-28.3,28.5c-4.4,0-8.8-1-12.7-2.9   c-5,3.8-11.1,5.9-17.4,5.9c-15.8,0-28.5-12.7-28.6-28.5V126.9c0-13.7,11.1-24.8,24.9-24.8c13.7,0,24.8,11.1,24.8,24.8   c0,0.2,0,0.3,0,0.5c2-0.3,4-0.5,6-0.5c19.9,0,36,16.1,36,35.9c0,2.6-0.3,5.2-0.8,7.7c0.7,0.4,1.3,0.8,2,1.2   C363.5,180.1,366.9,197.1,358.6,209.7z"
       id="path10"
       style="fill:#ffcc00" /><path
       d="M261,62c3.3,0,6-2.7,6-6V16c0-3.3-2.7-6-6-6s-6,2.7-6,6v40C255,59.3,257.7,62,261,62z"
       id="path12"
       style="fill:#ffcc00" /><path
       d="M446.7,201h-40c-3.3,0-6,2.7-6,6s2.7,6,6,6h40c3.3,0,6-2.7,6-6S450,201,446.7,201z"
       id="path14"
       style="fill:#ffcc00" /><path
       d="M105.3,201h-40c-3.3,0-6,2.7-6,6s2.7,6,6,6h40c3.3,0,6-2.7,6-6S108.6,201,105.3,201z"
       id="path16"
       style="fill:#ffcc00" /><path
       d="M369.7,101.5L401,70.2c2.3-2.3,2.3-6.1,0-8.5c-2.3-2.3-6.1-2.3-8.5,0L361.2,93c-2.3,2.3-2.3,6.1,0,8.5   C363.6,103.8,367.4,103.8,369.7,101.5z"
       id="path18"
       style="fill:#ffcc00" /><path
       d="M142.3,101.5c1.1,1.1,2.7,1.8,4.2,1.8c3.3,0,6-2.7,6-6c0-1.6-0.6-3.1-1.8-4.2l-31.2-31.2c-2.4-2.3-6.2-2.3-8.5,0.1   c-2.3,2.3-2.3,6.1,0,8.4L142.3,101.5z"
       id="path20"
       style="fill:#ffcc00" /><path
       d="M250,496c0,3.3,2.7,6,6,6s6-2.7,6-6v-17h-12V496z"
       id="path22"
       style="fill:#ffcc00" /></g></svg>